<svg xmlns="http://www.w3.org/2000/svg" xmlns:xlink="http://www.w3.org/1999/xlink" width="500" height="300" viewBox="0 0 500 300"><defs><clipPath id="b"><rect width="500" height="300"/></clipPath></defs><g id="a" clip-path="url(#b)"><rect width="500" height="300" fill="#fff"/><g transform="translate(50.164 92.2)"><g transform="translate(326.511 10.009)"><path d="M326.235,45.559q0-.324.015-.65Q326.24,45.235,326.235,45.559Z" transform="translate(-326.23 -9.978)" fill="#ff4f19"/><path d="M326.257,44.717c.009-.209.018-.419.03-.629C326.275,44.3,326.266,44.507,326.257,44.717Z" transform="translate(-326.23 -9.978)" fill="#ff4f19"/><path d="M326.3,43.879c.013-.206.026-.412.042-.619C326.326,43.466,326.313,43.672,326.3,43.879Z" transform="translate(-326.23 -9.979)" fill="#ff4f19"/><path d="M326.361,43.045c.018-.205.036-.411.057-.617C326.4,42.634,326.379,42.839,326.361,43.045Z" transform="translate(-326.23 -9.98)" fill="#ff4f19"/><path d="M386.842,19.519a36.118,36.118,0,0,1,9.65,14.658,36.528,36.528,0,0,0-3.761-2.238A36.161,36.161,0,0,0,345.9,44.379l-.008.012,0,.006a92.176,92.176,0,0,0,13.2,8.2,89.011,89.011,0,0,0,16.643,6.628,55.282,55.282,0,0,0,5.956,1.31,1.206,1.206,0,0,1-.379,2.381c-1.218-.193-2.492-.451-3.8-.758-.02,0-.034.017-.054.021l-2.906.5,1.874,1.723a1.2,1.2,0,0,1-1.09,2.06,87.392,87.392,0,0,1-19.546-7.428,1.205,1.205,0,0,1,.414-2.269.8.8,0,0,0,.457-1.386l-5.2-4.312c-.007-.006-.011-.016-.018-.022-2.4-1.47-4.692-3-6.79-4.566-.2.365-.4.734-.6,1.108a35.959,35.959,0,0,0-3.458,22.67c3.071.145,6.222.309,8.628,1.666,3.775,2.153,6.308,2.077,6.333,2.075a1.214,1.214,0,0,1,1.254,1.15,1.2,1.2,0,0,1-1.134,1.258c-.129.008-3.18.153-7.644-2.387-1.754-1.018-4.343-1.2-6.93-1.325h0q.422,1.723,1.011,3.4A35.858,35.858,0,0,1,337.6,72.48h0l-.012-.011q-.344-.324-.678-.656c-.139-.137-.275-.277-.411-.416-.053-.054-.106-.107-.158-.161-.6-.615-1.17-1.245-1.715-1.9l.023.012a36.3,36.3,0,0,1-8.4-22.023,36.159,36.159,0,1,0,60.592-27.808ZM367.23,47.293c-.036-.015-.09-.048-.136-.071a7.977,7.977,0,0,0-4.1-.794,10.006,10.006,0,0,1-5.044-1.019,11.681,11.681,0,0,1-1.641-1.033,1.205,1.205,0,0,1,1.438-1.935A7.454,7.454,0,0,0,363,44.018a9.82,9.82,0,0,1,5.346,1.14,1.205,1.205,0,0,1-1.119,2.135Zm9.108,2.806c-1.591.731-4.047-.255-4.761-.575-.021-.01-.04-.019-.059-.03a1.2,1.2,0,0,1,1.041-2.172,5.4,5.4,0,0,0,2.774.586,1.205,1.205,0,1,1,1,2.191ZM351.35,56.344a1.232,1.232,0,0,1-.927-.07,1.194,1.194,0,0,1-.521-1.622,1.205,1.205,0,0,1,2.224.18,1.218,1.218,0,0,1-.08.921,1.176,1.176,0,0,1-.7.592Zm11.183,12.519a1.229,1.229,0,0,1-.926-.07,1.208,1.208,0,1,1,1.7-1.442,1.214,1.214,0,0,1-.08.921,1.173,1.173,0,0,1-.7.592Zm20.7-19.194a1.231,1.231,0,0,1-.927-.069,1.208,1.208,0,1,1,1.7-1.442,1.214,1.214,0,0,1-.08.921,1.169,1.169,0,0,1-.7.591Zm2.078,6.5a1.229,1.229,0,0,1-.926-.07,1.208,1.208,0,1,1,1.7-1.442,1.213,1.213,0,0,1-.08.921,1.17,1.17,0,0,1-.7.592Zm2.008-15.748a1.181,1.181,0,0,1-.253-.1,1.205,1.205,0,0,1,.85-2.239,53.007,53.007,0,0,0,10.056,1.656q.219,1.213.357,2.439A54.464,54.464,0,0,1,387.317,40.426Z" transform="translate(-326.23 -9.999)" fill="#ff4f19"/><path d="M326.231,46.4c0-.226,0-.452,0-.678C326.23,45.949,326.23,46.174,326.231,46.4Z" transform="translate(-326.23 -9.977)" fill="#ff4f19"/><path d="M326.248,47.242c-.008-.24-.012-.479-.015-.719C326.235,46.762,326.24,47,326.248,47.242Z" transform="translate(-326.23 -9.976)" fill="#ff4f19"/><path d="M328.018,34.921c.042-.13.086-.26.13-.39C328.1,34.661,328.06,34.791,328.018,34.921Z" transform="translate(-326.228 -9.987)" fill="#ff4f19"/><path d="M383.46,16.812q.251.182.5.366C383.792,17.055,383.627,16.932,383.46,16.812Z" transform="translate(-326.18 -10.002)" fill="#ff4f19"/><path d="M384.163,17.33c.176.134.35.269.524.405C384.513,17.6,384.339,17.463,384.163,17.33Z" transform="translate(-326.18 -10.001)" fill="#ff4f19"/><path d="M329.3,31.577c.048-.11.1-.219.145-.328C329.4,31.358,329.351,31.468,329.3,31.577Z" transform="translate(-326.227 -9.989)" fill="#ff4f19"/><path d="M329.7,30.711c.043-.09.084-.182.128-.272C329.782,30.529,329.741,30.621,329.7,30.711Z" transform="translate(-326.227 -9.99)" fill="#ff4f19"/><path d="M382.738,16.308c.159.108.315.218.472.328C383.053,16.526,382.9,16.416,382.738,16.308Z" transform="translate(-326.181 -10.002)" fill="#ff4f19"/><path d="M379.675,14.434c.1.055.2.113.3.169C379.875,14.547,379.776,14.489,379.675,14.434Z" transform="translate(-326.184 -10.004)" fill="#ff4f19"/><path d="M380.467,14.879c.124.072.247.147.371.22C380.714,15.026,380.592,14.951,380.467,14.879Z" transform="translate(-326.183 -10.003)" fill="#ff4f19"/><path d="M384.848,17.861q.278.221.549.445C385.216,18.156,385.033,18.007,384.848,17.861Z" transform="translate(-326.179 -10.001)" fill="#ff4f19"/><path d="M385.514,18.4c.194.161.385.325.576.489C385.9,18.728,385.708,18.564,385.514,18.4Z" transform="translate(-326.179 -10)" fill="#ff4f19"/><path d="M386.162,18.956q.3.266.6.538C386.565,19.313,386.365,19.133,386.162,18.956Z" transform="translate(-326.178 -10)" fill="#ff4f19"/><path d="M328.3,34.086c.045-.127.091-.254.137-.38C328.394,33.832,328.349,33.959,328.3,34.086Z" transform="translate(-326.228 -9.987)" fill="#ff4f19"/><path d="M328.612,33.251c.047-.123.094-.246.142-.368C328.706,33.005,328.659,33.128,328.612,33.251Z" transform="translate(-326.228 -9.988)" fill="#ff4f19"/><path d="M328.944,32.417c.048-.118.1-.236.146-.353C329.04,32.181,328.992,32.3,328.944,32.417Z" transform="translate(-326.228 -9.989)" fill="#ff4f19"/><path d="M381.242,15.34c.138.085.274.172.41.258C381.516,15.512,381.38,15.425,381.242,15.34Z" transform="translate(-326.182 -10.003)" fill="#ff4f19"/><path d="M327.092,38.283c.033-.145.068-.29.1-.435C327.16,37.993,327.125,38.138,327.092,38.283Z" transform="translate(-326.229 -9.984)" fill="#ff4f19"/><path d="M326.44,42.228c.023-.211.047-.422.074-.634C326.487,41.805,326.463,42.016,326.44,42.228Z" transform="translate(-326.23 -9.98)" fill="#ff4f19"/><path d="M326.914,39.128c.03-.155.064-.311.1-.466C326.978,38.818,326.944,38.973,326.914,39.128Z" transform="translate(-326.229 -9.983)" fill="#ff4f19"/><path d="M327.292,37.439c.034-.14.071-.279.108-.419C327.363,37.16,327.327,37.3,327.292,37.439Z" transform="translate(-326.229 -9.984)" fill="#ff4f19"/><path d="M326.529,41.482q.134-1.03.329-2.056Q326.663,40.451,326.529,41.482Z" transform="translate(-326.23 -9.982)" fill="#ff4f19"/><path d="M327.512,36.6c.038-.136.077-.272.116-.408C327.589,36.326,327.55,36.462,327.512,36.6Z" transform="translate(-326.229 -9.985)" fill="#ff4f19"/><path d="M327.754,35.759q.06-.2.123-.4Q327.814,35.56,327.754,35.759Z" transform="translate(-326.229 -9.986)" fill="#ff4f19"/><path d="M382,15.817c.149.1.3.194.443.293C382.3,16.011,382.148,15.913,382,15.817Z" transform="translate(-326.182 -10.003)" fill="#ff4f19"/><path d="M334.651,69.357l-.023-.011c.544.653,1.119,1.283,1.714,1.9.052.054.105.108.158.161.136.139.272.279.41.416q.335.332.679.656l.012.011h0a36.023,36.023,0,0,0,4.508,3.606q-.587-1.672-1.011-3.4l-.723-.034c-.947-.045-1.877-.09-2.76-.171l-.261-.247c-.306-.293-.6-.593-.9-.9-.189-.2-.383-.387-.567-.588-.2-.217-.4-.443-.593-.666-.216-.244-.433-.487-.642-.737,1.227.669,3.56.788,5.836.9l.11,0c.142.818.3,1.632.5,2.437,2.587.125,5.175.307,6.93,1.325,4.464,2.54,7.514,2.4,7.643,2.387a1.2,1.2,0,0,0,1.135-1.258A1.215,1.215,0,0,0,355.553,74c-.025,0-2.558.078-6.333-2.075-2.406-1.357-5.558-1.521-8.63-1.666a35.966,35.966,0,0,1,3.459-22.67c.192-.374.392-.743.6-1.108,2.1,1.565,4.388,3.1,6.79,4.566.007.006.01.016.018.022l5.2,4.312a.8.8,0,0,1-.457,1.386,1.2,1.2,0,0,0-.414,2.269,87.391,87.391,0,0,0,19.546,7.428,1.2,1.2,0,0,0,1.09-2.06l-1.874-1.723,2.907-.5c.02,0,.034-.016.054-.02,1.308.306,2.583.564,3.8.758a1.205,1.205,0,1,0,.378-2.381,55.313,55.313,0,0,1-5.955-1.31A89.013,89.013,0,0,1,359.087,52.6a92.178,92.178,0,0,1-13.2-8.2l0-.006c-.436.673-.845,1.37-1.241,2.08-.4-.3-.8-.594-1.185-.893a1.205,1.205,0,0,1,1.482-1.9c.3.236.64.466.951.7a36.162,36.162,0,0,1,46.828-12.441,36.535,36.535,0,0,1,3.761,2.238,36.118,36.118,0,0,0-9.65-14.658l-.027-.025c-.2-.181-.4-.361-.6-.538l-.073-.063c-.19-.165-.381-.328-.576-.49l-.117-.1q-.272-.225-.549-.446l-.161-.126c-.173-.136-.347-.271-.524-.405l-.205-.152q-.248-.185-.5-.366l-.25-.176c-.157-.11-.313-.22-.471-.328l-.3-.2c-.147-.1-.294-.2-.443-.293-.114-.074-.231-.146-.346-.219-.137-.086-.273-.173-.411-.257s-.269-.161-.4-.241-.246-.149-.371-.221c-.162-.093-.327-.184-.491-.276l-.3-.169q-.4-.218-.81-.428a36.171,36.171,0,0,0-41.5,6.014c.156-.149.312-.3.47-.443a1.006,1.006,0,0,1,.048.092c.774,2.713,3.024,6.012,6.506,9.539a1.205,1.205,0,0,1-1.407,1.92,1.185,1.185,0,0,1-.307-.225,29.761,29.761,0,0,1-6.724-9.439c.457-.489.922-.968,1.4-1.429a36.079,36.079,0,0,0-7.164,9.613q-.207.4-.4.806c-.044.09-.085.182-.128.272q-.128.269-.251.538c-.049.109-.1.219-.145.328-.071.162-.143.324-.212.487-.05.117-.1.235-.146.353-.064.155-.128.31-.19.466-.048.123-.1.245-.142.368-.058.152-.116.3-.172.455-.046.127-.091.253-.136.38-.053.148-.105.3-.156.445-.044.13-.087.26-.13.39-.048.147-.1.293-.141.439s-.083.266-.123.4-.085.287-.126.431-.078.272-.116.408-.075.282-.112.423-.073.279-.108.418-.066.273-.1.409-.069.29-.1.435c-.028.126-.054.253-.081.38-.032.155-.066.31-.1.465-.02.1-.037.2-.056.3q-.194,1.027-.328,2.056c-.005.038-.011.076-.016.114-.027.211-.05.422-.073.635-.007.067-.016.134-.022.2-.022.205-.04.411-.057.617-.006.072-.013.144-.019.216q-.024.309-.043.618c0,.07-.009.141-.013.211-.012.209-.021.419-.029.629,0,.065-.005.129-.007.194q-.012.324-.016.649c0,.055,0,.11,0,.165q0,.338,0,.678c0,.041,0,.082,0,.123,0,.239.008.479.015.719l0,.062a36.286,36.286,0,0,0,8.4,22.022Zm29.807-50.185a1.262,1.262,0,0,1,1.522.783,1.214,1.214,0,0,1-.08.921,1.168,1.168,0,0,1-.7.591,1.229,1.229,0,0,1-.926-.069,1.211,1.211,0,0,1,.18-2.225ZM353.5,18.914c1.5-.878,3.262-.659,3.934.49s0,2.792-1.5,3.67-3.262.66-3.934-.489S352,19.792,353.5,18.914ZM335.289,38.146a2.03,2.03,0,1,1,1.231,2.979A2.32,2.32,0,0,1,335.289,38.146Z" transform="translate(-326.23 -10.008)" fill="#db3f3d"/><path d="M368.324,45.139A9.82,9.82,0,0,0,362.978,44a7.453,7.453,0,0,1-5.253-1.576,1.205,1.205,0,0,0-1.438,1.935,11.678,11.678,0,0,0,1.641,1.033,10.006,10.006,0,0,0,5.044,1.019,7.977,7.977,0,0,1,4.1.794c.046.023.1.056.136.071a1.205,1.205,0,0,0,1.119-2.135Z" transform="translate(-326.204 -9.98)" fill="#db3f3d"/><path d="M376.893,48.477a1.2,1.2,0,0,0-1.6-.593,5.4,5.4,0,0,1-2.774-.586,1.205,1.205,0,0,0-1.041,2.173c.019.01.038.02.059.029.715.319,3.171,1.305,4.761.574a1.206,1.206,0,0,0,.593-1.6Z" transform="translate(-326.191 -9.976)" fill="#db3f3d"/><path d="M355.913,23.067c-1.5.878-3.263.658-3.934-.49s0-2.792,1.5-3.67,3.263-.659,3.934.489S357.412,22.189,355.913,23.067Z" transform="translate(-326.208 -10)" fill="#a03939" fill-rule="evenodd"/><path d="M337.836,36.157a2.322,2.322,0,0,1,1.231,2.98,2.03,2.03,0,1,1-1.231-2.98Z" transform="translate(-326.222 -9.985)" fill="#a03939" fill-rule="evenodd"/><path d="M364.246,21.389a1.229,1.229,0,0,0,.926.069,1.168,1.168,0,0,0,.7-.591,1.213,1.213,0,0,0,.08-.921,1.21,1.21,0,1,0-1.7,1.442Z" transform="translate(-326.198 -10)" fill="#a03939"/><path d="M382.438,47.352a1.2,1.2,0,0,0-.181,2.224,1.231,1.231,0,0,0,.927.069,1.171,1.171,0,0,0,.7-.591,1.223,1.223,0,0,0,.08-.921,1.261,1.261,0,0,0-1.522-.782Z" transform="translate(-326.182 -9.975)" fill="#db3f3d"/><path d="M384.514,53.85a1.205,1.205,0,0,0-.18,2.224,1.231,1.231,0,0,0,.927.07,1.167,1.167,0,0,0,.7-.592,1.212,1.212,0,0,0,.08-.921,1.261,1.261,0,0,0-1.522-.782Z" transform="translate(-326.18 -9.97)" fill="#db3f3d"/><path d="M350.584,54.02a1.2,1.2,0,0,0-.181,2.224,1.232,1.232,0,0,0,.927.07,1.169,1.169,0,0,0,.7-.592,1.218,1.218,0,0,0,.08-.921A1.262,1.262,0,0,0,350.584,54.02Z" transform="translate(-326.21 -9.97)" fill="#db3f3d"/><path d="M361.757,66.528a1.205,1.205,0,0,0-.18,2.224,1.231,1.231,0,0,0,.927.07,1.167,1.167,0,0,0,.7-.592,1.213,1.213,0,0,0,.08-.921,1.261,1.261,0,0,0-1.522-.782Z" transform="translate(-326.2 -9.959)" fill="#db3f3d"/><path d="M343.246,43.866a1.206,1.206,0,0,0,.209,1.691c.384.3.788.6,1.185.893.4-.71.8-1.407,1.241-2.08l.008-.012c-.312-.235-.65-.465-.952-.7A1.2,1.2,0,0,0,343.246,43.866Z" transform="translate(-326.215 -9.979)" fill="#a03939"/><path d="M342.709,30.9a1.184,1.184,0,0,0,.307.225,1.205,1.205,0,0,0,1.407-1.92c-3.482-3.527-5.732-6.826-6.506-9.539a1.012,1.012,0,0,0-.048-.092c-.158.146-.314.294-.47.443a.15.15,0,0,1-.013.013c-.478.462-.944.941-1.4,1.43A29.761,29.761,0,0,0,342.709,30.9Z" transform="translate(-326.221 -9.999)" fill="#a03939"/><path d="M340.592,70.207l-.11,0c-2.276-.108-4.609-.227-5.836-.9.208.249.425.492.642.737.2.222.389.448.593.666.184.2.377.392.567.588.3.3.593.6.9.9.086.083.174.165.261.247.884.081,1.814.126,2.76.171l.723.034h0C340.9,71.839,340.734,71.024,340.592,70.207Z" transform="translate(-326.223 -9.956)" fill="#a03939"/><path d="M397.917,39.731a53.007,53.007,0,0,1-10.056-1.656,1.205,1.205,0,0,0-.85,2.239,1.182,1.182,0,0,0,.253.1,54.466,54.466,0,0,0,11.009,1.761Q398.138,40.944,397.917,39.731Z" transform="translate(-326.178 -9.983)" fill="#db3f3d"/></g><text transform="translate(2.55 87.8)" fill="#361450" font-size="73" font-family="PlayfairDisplay-Black, Playfair Display" font-weight="800"><tspan x="0" y="0">Astrocrew</tspan></text></g></g></svg>